<svg width="120" height="120" viewBox="0 0 120 120" fill="none" xmlns="http://www.w3.org/2000/svg">
<circle cx="60" cy="60" r="60" fill="#E3EAFC"/>
<path d="M41.1759 64.0325C39.4545 64.0325 37.9076 63.6719 36.5351 62.9508C35.1627 62.2297 34.0228 61.1829 33.1156 59.8104C32.2084 58.4147 31.592 56.7166 31.2663 54.7161L31.9641 55.7629H29.7659C29.2774 55.7629 28.8703 55.6117 28.5447 55.3093C28.219 54.9836 28.0562 54.5765 28.0562 54.088C28.0562 53.5995 28.219 53.2041 28.5447 52.9017C28.8703 52.576 29.2774 52.4132 29.7659 52.4132H31.7897L31.022 53.2506C30.9988 52.5295 30.9871 51.8665 30.9871 51.2617C30.9871 50.6336 31.022 50.0056 31.0918 49.3775L31.8246 50.2498H29.7659C29.2774 50.2498 28.8703 50.0986 28.5447 49.7962C28.219 49.4705 28.0562 49.0635 28.0562 48.575C28.0562 48.0865 28.219 47.691 28.5447 47.3886C28.8703 47.0629 29.2774 46.9001 29.7659 46.9001H32.2084L31.2663 47.9818C31.592 45.958 32.2084 44.2599 33.1156 42.8874C34.0228 41.515 35.1627 40.4682 36.5351 39.7471C37.9076 39.0259 39.4545 38.6654 41.1759 38.6654C42.1529 38.6654 43.1415 38.8166 44.1417 39.119C45.142 39.3981 46.0492 39.8517 46.8634 40.4798C47.2821 40.7822 47.5612 41.1428 47.7008 41.5615C47.8636 41.9802 47.8985 42.3989 47.8055 42.8176C47.7124 43.2363 47.5264 43.5969 47.2472 43.8993C46.9913 44.1785 46.654 44.3529 46.2353 44.4227C45.8166 44.4925 45.3514 44.3878 44.8396 44.1087C44.4209 43.8295 43.9091 43.6202 43.3043 43.4806C42.7228 43.3178 42.1412 43.2363 41.5597 43.2363C40.7688 43.2363 40.0477 43.3992 39.3963 43.7248C38.7682 44.0273 38.2216 44.5158 37.7564 45.1903C37.3144 45.8649 36.9655 46.7489 36.7096 47.8422L36.0466 46.9001H40.3733C40.8618 46.9001 41.2573 47.0629 41.5597 47.3886C41.8853 47.7143 42.0482 48.1097 42.0482 48.575C42.0482 49.0402 41.8853 49.4356 41.5597 49.7613C41.2573 50.087 40.8618 50.2498 40.3733 50.2498H35.4883L36.3955 49.4822C36.3723 49.9939 36.3606 50.5638 36.3606 51.1919C36.3606 51.82 36.3723 52.4132 36.3955 52.9714L35.5581 52.4132H40.3733C40.8618 52.4132 41.2573 52.576 41.5597 52.9017C41.8853 53.2273 42.0482 53.6228 42.0482 54.088C42.0482 54.5533 41.8853 54.9487 41.5597 55.2744C41.2573 55.6 40.8618 55.7629 40.3733 55.7629H36.1513L36.7096 54.8557C36.9655 55.949 37.3144 56.8329 37.7564 57.5075C38.2216 58.1821 38.7682 58.6822 39.3963 59.0079C40.0477 59.3103 40.7688 59.4615 41.5597 59.4615C42.1645 59.4615 42.7344 59.3917 43.2694 59.2522C43.8277 59.1126 44.3627 58.8916 44.8745 58.5892C45.3863 58.31 45.8515 58.2054 46.2702 58.2752C46.6889 58.3449 47.0262 58.531 47.2821 58.8334C47.5612 59.1358 47.7357 59.4848 47.8055 59.8802C47.8985 60.2757 47.8753 60.6828 47.7357 61.1015C47.5961 61.4969 47.317 61.8459 46.8983 62.1483C46.1306 62.7763 45.2351 63.2532 44.2115 63.5789C43.188 63.8813 42.1761 64.0325 41.1759 64.0325Z" fill="#3E5BA7"/>
<path d="M58.9925 64.0325C57.8061 64.0325 56.5849 63.8813 55.3287 63.5789C54.0726 63.2765 52.9211 62.8229 51.8743 62.218C51.3393 61.9156 50.9671 61.5435 50.7578 61.1015C50.5717 60.6595 50.5135 60.2059 50.5833 59.7407C50.6763 59.2754 50.8624 58.88 51.1416 58.5543C51.444 58.2054 51.8162 57.9844 52.2581 57.8913C52.7234 57.7983 53.2351 57.903 53.7934 58.2054C54.6076 58.6241 55.4334 58.9498 56.2708 59.1824C57.1315 59.415 58.0038 59.5313 58.8878 59.5313C59.7717 59.5313 60.5277 59.3801 61.1558 59.0777C61.7839 58.7753 62.2608 58.3566 62.5864 57.8216C62.9121 57.2865 63.0749 56.6585 63.0749 55.9373C63.0749 54.8208 62.7144 53.9252 61.9932 53.2506C61.2954 52.576 60.3416 52.2387 59.132 52.2387C58.5272 52.2387 57.9108 52.3434 57.2827 52.5527C56.6779 52.7388 56.0498 53.0761 55.3985 53.5646C55.1659 53.7507 54.8635 53.9252 54.4913 54.088C54.1191 54.2509 53.7236 54.3323 53.3049 54.3323C52.5838 54.3323 52.0488 54.1694 51.6999 53.8438C51.3509 53.4948 51.1765 52.9947 51.1765 52.3434V41.387C51.1765 40.6194 51.3742 40.0378 51.7696 39.6424C52.1884 39.2469 52.7699 39.0492 53.5143 39.0492H64.7149C65.4825 39.0492 66.0641 39.2469 66.4595 39.6424C66.855 40.0146 67.0527 40.5612 67.0527 41.2824C67.0527 41.9802 66.855 42.5269 66.4595 42.9223C66.0641 43.2945 65.4825 43.4806 64.7149 43.4806H56.3755V50.1451H55.0496C55.6311 49.424 56.3988 48.8657 57.3525 48.4703C58.3062 48.0748 59.353 47.8771 60.4929 47.8771C62.0514 47.8771 63.4122 48.2144 64.5753 48.889C65.7384 49.5403 66.6456 50.4592 67.297 51.6455C67.9483 52.8319 68.274 54.2043 68.274 55.7629C68.274 57.3912 67.9018 58.8334 67.1574 60.0896C66.413 61.3225 65.343 62.2878 63.9472 62.9857C62.5515 63.6835 60.8999 64.0325 58.9925 64.0325Z" fill="#3E5BA7"/>
<path d="M79.8796 64.0325C76.9021 64.0325 74.6224 62.9275 73.0406 60.7177C71.4821 58.4845 70.7028 55.3325 70.7028 51.2617C70.7028 48.5401 71.0517 46.2488 71.7496 44.3878C72.4707 42.5036 73.5059 41.0846 74.8551 40.1309C76.2275 39.1539 77.9024 38.6654 79.8796 38.6654C82.8804 38.6654 85.1601 39.7471 86.7186 41.9104C88.2772 44.0505 89.0564 47.1676 89.0564 51.2617C89.0564 53.9833 88.6959 56.2979 87.9748 58.2054C87.2769 60.0896 86.2534 61.5318 84.9042 62.5321C83.555 63.5323 81.8802 64.0325 79.8796 64.0325ZM79.8796 59.636C81.2288 59.636 82.2291 58.973 82.8804 57.6471C83.5317 56.2979 83.8574 54.1694 83.8574 51.2617C83.8574 48.354 83.5317 46.2604 82.8804 44.981C82.2291 43.7016 81.2288 43.0619 79.8796 43.0619C78.5304 43.0619 77.5302 43.7016 76.8788 44.981C76.2275 46.2604 75.9018 48.354 75.9018 51.2617C75.9018 54.1694 76.2275 56.2979 76.8788 57.6471C77.5302 58.973 78.5304 59.636 79.8796 59.636Z" fill="#3E5BA7"/>
<path d="M17.3795 82.4009C17.1286 82.4009 16.934 82.3317 16.7957 82.1933C16.6659 82.055 16.6011 81.856 16.6011 81.5966V73.8777C16.6011 73.6096 16.6659 73.4063 16.7957 73.2679C16.934 73.1209 17.1113 73.0474 17.3276 73.0474C17.5265 73.0474 17.6735 73.0863 17.7686 73.1642C17.8724 73.2333 17.9935 73.3544 18.1319 73.5274L23.1005 79.975H22.7632V73.8387C22.7632 73.5879 22.8281 73.3933 22.9578 73.255C23.0962 73.1166 23.2908 73.0474 23.5416 73.0474C23.7924 73.0474 23.9827 73.1166 24.1124 73.255C24.2422 73.3933 24.307 73.5879 24.307 73.8387V81.6225C24.307 81.8647 24.2465 82.055 24.1254 82.1933C24.0043 82.3317 23.84 82.4009 23.6324 82.4009C23.4335 82.4009 23.2735 82.362 23.1524 82.2842C23.04 82.2063 22.9146 82.0809 22.7762 81.9079L17.8205 75.4604H18.1449V81.5966C18.1449 81.856 18.08 82.055 17.9503 82.1933C17.8205 82.3317 17.6303 82.4009 17.3795 82.4009Z" fill="#3E5BA7"/>
<path d="M30.1065 82.4269C29.4752 82.4269 28.9174 82.3447 28.433 82.1804C27.9574 82.016 27.5552 81.7739 27.2265 81.4539C26.8979 81.1252 26.6514 80.7187 26.4871 80.2344C26.3228 79.7501 26.2406 79.1879 26.2406 78.5479V73.8906C26.2406 73.6052 26.3098 73.3933 26.4482 73.255C26.5952 73.1166 26.8028 73.0474 27.0709 73.0474C27.339 73.0474 27.5422 73.1166 27.6806 73.255C27.8276 73.3933 27.9011 73.6052 27.9011 73.8906V78.535C27.9011 79.3566 28.0871 79.975 28.459 80.3901C28.8395 80.7966 29.3887 80.9998 30.1065 80.9998C30.8244 80.9998 31.3693 80.7966 31.7411 80.3901C32.113 79.975 32.299 79.3566 32.299 78.535V73.8906C32.299 73.6052 32.3682 73.3933 32.5065 73.255C32.6536 73.1166 32.8611 73.0474 33.1292 73.0474C33.3887 73.0474 33.5876 73.1166 33.726 73.255C33.873 73.3933 33.9465 73.6052 33.9465 73.8906V78.5479C33.9465 79.3955 33.7995 80.109 33.5055 80.6885C33.2201 81.2679 32.792 81.7047 32.2211 81.9987C31.6503 82.2842 30.9455 82.4269 30.1065 82.4269Z" fill="#3E5BA7"/>
<path d="M36.7134 82.4009C36.4453 82.4009 36.2378 82.3274 36.0907 82.1804C35.9524 82.0247 35.8832 81.8128 35.8832 81.5447V73.9944C35.8832 73.7177 35.9567 73.5101 36.1037 73.3717C36.2507 73.2247 36.4583 73.1512 36.7264 73.1512H39.8529C40.8561 73.1512 41.6302 73.3933 42.1751 73.8777C42.7199 74.3533 42.9924 75.0236 42.9924 75.8885C42.9924 76.4506 42.867 76.935 42.6161 77.3414C42.374 77.7479 42.0194 78.0593 41.5524 78.2755C41.0853 78.4917 40.5188 78.5998 39.8529 78.5998L39.9697 78.4052H40.3978C40.7524 78.4052 41.0594 78.4917 41.3188 78.6647C41.587 78.8377 41.8205 79.1101 42.0194 79.482L42.9924 81.2852C43.0961 81.4669 43.1437 81.6442 43.1351 81.8171C43.1264 81.9901 43.0615 82.1328 42.9405 82.2452C42.8194 82.349 42.6421 82.4009 42.4086 82.4009C42.1751 82.4009 41.9848 82.3533 41.8378 82.2582C41.6907 82.1544 41.561 81.9987 41.4486 81.7912L40.1383 79.3782C39.9826 79.0842 39.7967 78.8896 39.5805 78.7944C39.3729 78.6906 39.1048 78.6387 38.7761 78.6387H37.5437V81.5447C37.5437 81.8128 37.4745 82.0247 37.3361 82.1804C37.1978 82.3274 36.9902 82.4009 36.7134 82.4009ZM37.5437 77.4063H39.5675C40.1643 77.4063 40.614 77.2852 40.9167 77.0431C41.228 76.7923 41.3837 76.4204 41.3837 75.9274C41.3837 75.4431 41.228 75.0798 40.9167 74.8377C40.614 74.5869 40.1643 74.4614 39.5675 74.4614H37.5437V77.4063Z" fill="#3E5BA7"/>
<path d="M51.4771 82.4139C50.9063 82.4139 50.4133 82.2669 49.9982 81.9728C49.5917 81.6787 49.3193 81.2852 49.1809 80.7923L49.3236 80.6496V81.8431C49.3236 82.016 49.276 82.1501 49.1809 82.2452C49.0944 82.3404 48.969 82.3879 48.8047 82.3879C48.6317 82.3879 48.502 82.3404 48.4155 82.2452C48.329 82.1501 48.2857 82.016 48.2857 81.8431V73.5923C48.2857 73.4193 48.329 73.2896 48.4155 73.2031C48.502 73.1079 48.6317 73.0604 48.8047 73.0604C48.969 73.0604 49.0987 73.1079 49.1938 73.2031C49.289 73.2896 49.3365 73.4193 49.3365 73.5923V77.4582H49.1809C49.3279 76.9739 49.6047 76.589 50.0111 76.3036C50.4176 76.0182 50.9063 75.8755 51.4771 75.8755C52.0479 75.8755 52.5409 76.0096 52.956 76.2777C53.3711 76.5371 53.6911 76.9133 53.916 77.4063C54.1495 77.8906 54.2663 78.4701 54.2663 79.1447C54.2663 79.8106 54.1495 80.3901 53.916 80.8831C53.6911 81.3674 53.3668 81.7436 52.943 82.0117C52.5279 82.2798 52.0393 82.4139 51.4771 82.4139ZM51.2565 81.5706C51.6544 81.5706 51.996 81.4755 52.2814 81.2852C52.5755 81.095 52.8003 80.8182 52.956 80.455C53.1203 80.0917 53.2025 79.655 53.2025 79.1447C53.2025 78.3577 53.0252 77.7566 52.6706 77.3414C52.3247 76.9263 51.8533 76.7187 51.2565 76.7187C50.8674 76.7187 50.5257 76.8139 50.2317 77.0042C49.9376 77.1858 49.7084 77.4582 49.5441 77.8214C49.3884 78.176 49.3106 78.6171 49.3106 79.1447C49.3106 79.9231 49.4879 80.5242 49.8425 80.9479C50.1971 81.3631 50.6684 81.5706 51.2565 81.5706Z" fill="#3E5BA7"/>
<path d="M58.6902 82.4139C58.0242 82.4139 57.4491 82.2842 56.9648 82.0247C56.4891 81.7566 56.1172 81.3804 55.8491 80.896C55.5896 80.4117 55.4599 79.8323 55.4599 79.1577C55.4599 78.5004 55.5896 77.9296 55.8491 77.4452C56.1085 76.9523 56.4631 76.5674 56.9129 76.2906C57.3712 76.0139 57.8988 75.8755 58.4956 75.8755C58.9194 75.8755 59.2999 75.949 59.6372 76.096C59.9745 76.2344 60.2599 76.4377 60.4934 76.7058C60.7356 76.9739 60.9172 77.2982 61.0383 77.6787C61.168 78.0593 61.2329 78.4874 61.2329 78.9631C61.2329 79.1014 61.1939 79.2052 61.1161 79.2744C61.0383 79.335 60.9258 79.3652 60.7788 79.3652H56.2642V78.6777H60.5323L60.3248 78.8463C60.3248 78.3793 60.2556 77.9858 60.1172 77.6658C59.9788 77.3371 59.7756 77.0863 59.5075 76.9133C59.248 76.7404 58.9194 76.6539 58.5215 76.6539C58.0804 76.6539 57.7042 76.7577 57.3929 76.9652C57.0902 77.1642 56.861 77.4452 56.7053 77.8085C56.5496 78.1631 56.4718 78.5782 56.4718 79.0539V79.1317C56.4718 79.9274 56.6621 80.5328 57.0426 80.9479C57.4318 81.3631 57.981 81.5706 58.6902 81.5706C58.9842 81.5706 59.2739 81.5317 59.5594 81.4539C59.8534 81.376 60.1388 81.2463 60.4156 81.0647C60.5367 80.9869 60.6448 80.9523 60.7399 80.9609C60.8437 80.9609 60.9258 80.9912 60.9864 81.0517C61.0469 81.1036 61.0858 81.1728 61.1031 81.2593C61.1291 81.3371 61.1204 81.4236 61.0772 81.5187C61.0426 81.6139 60.9691 81.696 60.8566 81.7652C60.5712 81.9728 60.2339 82.1328 59.8448 82.2452C59.4556 82.3577 59.0707 82.4139 58.6902 82.4139Z" fill="#3E5BA7"/>
<path d="M63.2726 82.362C63.0996 82.362 62.9699 82.3144 62.8834 82.2193C62.7969 82.1155 62.7536 81.9728 62.7536 81.7912V76.4852C62.7536 76.3036 62.7969 76.1652 62.8834 76.0701C62.9699 75.975 63.0996 75.9274 63.2726 75.9274C63.4369 75.9274 63.5666 75.975 63.6618 76.0701C63.7569 76.1652 63.8045 76.3036 63.8045 76.4852V81.7912C63.8045 81.9728 63.7569 82.1155 63.6618 82.2193C63.5753 82.3144 63.4455 82.362 63.2726 82.362ZM63.2726 74.4744C63.0563 74.4744 62.8877 74.4182 62.7666 74.3058C62.6455 74.1847 62.585 74.0247 62.585 73.8258C62.585 73.6182 62.6455 73.4625 62.7666 73.3587C62.8877 73.2463 63.0563 73.1901 63.2726 73.1901C63.4974 73.1901 63.6661 73.2463 63.7785 73.3587C63.8996 73.4625 63.9601 73.6182 63.9601 73.8258C63.9601 74.0247 63.8996 74.1847 63.7785 74.3058C63.6661 74.4182 63.4974 74.4744 63.2726 74.4744Z" fill="#3E5BA7"/>
<path d="M69.8399 82.2971C69.6497 82.2971 69.5026 82.2496 69.3988 82.1544C69.3037 82.0506 69.2561 81.9036 69.2561 81.7133V73.735C69.2561 73.5447 69.3037 73.402 69.3988 73.3069C69.5026 73.2031 69.6497 73.1512 69.8399 73.1512H74.6659C74.8129 73.1512 74.9253 73.1901 75.0032 73.2679C75.081 73.3458 75.1199 73.4539 75.1199 73.5923C75.1199 73.7393 75.081 73.8517 75.0032 73.9296C74.9253 74.0074 74.8129 74.0463 74.6659 74.0463H70.294V77.2117H74.3934C74.5405 77.2117 74.6529 77.2506 74.7307 77.3285C74.8086 77.3977 74.8475 77.5058 74.8475 77.6528C74.8475 77.7998 74.8086 77.9123 74.7307 77.9901C74.6529 78.0679 74.5405 78.1069 74.3934 78.1069H70.294V81.402H74.6659C74.8129 81.402 74.9253 81.4409 75.0032 81.5187C75.081 81.5966 75.1199 81.7047 75.1199 81.8431C75.1199 81.9901 75.081 82.1025 75.0032 82.1804C74.9253 82.2582 74.8129 82.2971 74.6659 82.2971H69.8399Z" fill="#3E5BA7"/>
<path d="M77.2087 82.3879C77.0357 82.3879 76.9016 82.3404 76.8065 82.2452C76.72 82.1501 76.6768 82.016 76.6768 81.8431V76.4333C76.6768 76.2604 76.72 76.1306 76.8065 76.0442C76.893 75.949 77.0184 75.9014 77.1827 75.9014C77.347 75.9014 77.4725 75.949 77.5589 76.0442C77.6541 76.1306 77.7016 76.2604 77.7016 76.4333V77.4842H77.5719C77.7103 76.9739 77.9741 76.5804 78.3633 76.3036C78.7525 76.0269 79.2325 75.8798 79.8033 75.8625C79.933 75.8539 80.0368 75.8842 80.1146 75.9533C80.1925 76.0139 80.2357 76.122 80.2443 76.2777C80.253 76.4247 80.2184 76.5414 80.1406 76.6279C80.0627 76.7144 79.9416 76.7663 79.7773 76.7836L79.5698 76.8096C78.9816 76.8614 78.5276 77.0517 78.2076 77.3804C77.8962 77.7004 77.7406 78.1414 77.7406 78.7036V81.8431C77.7406 82.016 77.693 82.1501 77.5979 82.2452C77.5114 82.3404 77.3816 82.3879 77.2087 82.3879Z" fill="#3E5BA7"/>
<path d="M82.5246 82.3879C82.3602 82.3879 82.2305 82.3404 82.1354 82.2452C82.0489 82.1501 82.0056 82.016 82.0056 81.8431V76.8096H81.1754C81.037 76.8096 80.9246 76.775 80.8381 76.7058C80.7602 76.6279 80.7213 76.5242 80.7213 76.3944C80.7213 76.2647 80.7602 76.1652 80.8381 76.096C80.9246 76.0269 81.037 75.9923 81.1754 75.9923H82.291L82.0056 76.2647V75.7717C82.0056 74.9501 82.2045 74.3231 82.6024 73.8906C83.0089 73.4582 83.6013 73.2074 84.3797 73.1382L84.7559 73.0993C84.877 73.0906 84.9721 73.1123 85.0413 73.1642C85.1191 73.216 85.1667 73.2809 85.184 73.3587C85.21 73.4366 85.2143 73.5187 85.197 73.6052C85.1797 73.6831 85.1408 73.7523 85.0802 73.8128C85.0197 73.8733 84.9462 73.9079 84.8597 73.9166L84.5613 73.9425C84.0337 73.9858 83.6489 74.1458 83.4067 74.4225C83.1732 74.6993 83.0564 75.1058 83.0564 75.642V76.1869L82.9008 75.9923H84.4575C84.6045 75.9923 84.717 76.0269 84.7948 76.096C84.8727 76.1652 84.9116 76.2647 84.9116 76.3944C84.9116 76.5242 84.8727 76.6279 84.7948 76.7058C84.717 76.775 84.6045 76.8096 84.4575 76.8096H83.0564V81.8431C83.0564 82.2063 82.8791 82.3879 82.5246 82.3879ZM87.9083 82.4139C87.2856 82.4139 86.81 82.2236 86.4813 81.8431C86.1527 81.4625 85.9883 80.9177 85.9883 80.2085V73.5923C85.9883 73.4193 86.0316 73.2896 86.1181 73.2031C86.2046 73.1079 86.3343 73.0604 86.5073 73.0604C86.6716 73.0604 86.8013 73.1079 86.8964 73.2031C86.9916 73.2896 87.0391 73.4193 87.0391 73.5923V80.1306C87.0391 80.5977 87.13 80.9479 87.3116 81.1814C87.5018 81.4063 87.7786 81.5187 88.1418 81.5187C88.2197 81.5187 88.2889 81.5144 88.3494 81.5058C88.41 81.4971 88.4705 81.4928 88.531 81.4928C88.6262 81.4842 88.691 81.5058 88.7256 81.5577C88.7689 81.6096 88.7905 81.7133 88.7905 81.869C88.7905 82.0247 88.7559 82.1414 88.6867 82.2193C88.6175 82.2971 88.5051 82.349 88.3494 82.375C88.2802 82.3836 88.2067 82.3923 88.1289 82.4009C88.051 82.4096 87.9775 82.4139 87.9083 82.4139Z" fill="#3E5BA7"/>
<path d="M92.3843 82.4139C91.7703 82.4139 91.2384 82.2798 90.7886 82.0117C90.3389 81.7436 89.9886 81.3674 89.7378 80.8831C89.4957 80.3901 89.3746 79.8106 89.3746 79.1447C89.3746 78.6431 89.4438 78.1933 89.5822 77.7955C89.7205 77.389 89.9238 77.0431 90.1919 76.7577C90.46 76.4723 90.7757 76.256 91.1389 76.109C91.5108 75.9533 91.9259 75.8755 92.3843 75.8755C92.9984 75.8755 93.5303 76.0096 93.98 76.2777C94.4297 76.5458 94.7757 76.9263 95.0178 77.4193C95.2686 77.9036 95.3941 78.4787 95.3941 79.1447C95.3941 79.6463 95.3249 80.096 95.1865 80.4939C95.0481 80.8917 94.8449 81.2377 94.5767 81.5317C94.3086 81.8171 93.9886 82.0377 93.6168 82.1933C93.2535 82.3404 92.8427 82.4139 92.3843 82.4139ZM92.3843 81.5706C92.7735 81.5706 93.1151 81.4755 93.4092 81.2852C93.7032 81.095 93.9281 80.8182 94.0838 80.455C94.2481 80.0917 94.3303 79.655 94.3303 79.1447C94.3303 78.3577 94.153 77.7566 93.7984 77.3414C93.4524 76.9263 92.9811 76.7187 92.3843 76.7187C91.9865 76.7187 91.6405 76.8139 91.3465 77.0042C91.0611 77.1858 90.8362 77.4582 90.6719 77.8214C90.5162 78.176 90.4384 78.6171 90.4384 79.1447C90.4384 79.9231 90.6157 80.5242 90.9703 80.9479C91.3249 81.3631 91.7962 81.5706 92.3843 81.5706Z" fill="#3E5BA7"/>
<path d="M99.7616 84.749C99.3032 84.749 98.8535 84.6928 98.4124 84.5804C97.98 84.4766 97.5864 84.3079 97.2318 84.0744C97.1281 84.0139 97.0589 83.9404 97.0243 83.8539C96.9983 83.7674 96.994 83.6809 97.0113 83.5944C97.0286 83.5166 97.0675 83.4431 97.1281 83.3739C97.1886 83.3133 97.2578 83.2744 97.3356 83.2571C97.4221 83.2398 97.5086 83.2528 97.5951 83.296C97.9756 83.5296 98.3389 83.6896 98.6848 83.776C99.0308 83.8625 99.3724 83.9058 99.7097 83.9058C100.324 83.9058 100.786 83.7414 101.098 83.4128C101.418 83.0842 101.578 82.6085 101.578 81.9858V80.5198H101.708C101.578 81.0214 101.301 81.4193 100.877 81.7133C100.462 82.0074 99.9735 82.1544 99.4113 82.1544C98.8318 82.1544 98.3302 82.0247 97.9064 81.7652C97.4827 81.4971 97.154 81.1252 96.9205 80.6496C96.6956 80.1739 96.5832 79.6247 96.5832 79.002C96.5832 78.535 96.6481 78.1112 96.7778 77.7306C96.9075 77.3414 97.0935 77.0128 97.3356 76.7447C97.5864 76.4679 97.8848 76.256 98.2308 76.109C98.5854 75.9533 98.9789 75.8755 99.4113 75.8755C99.9821 75.8755 100.475 76.0225 100.89 76.3166C101.305 76.602 101.573 76.9912 101.695 77.4842L101.565 77.6398V76.4333C101.565 76.2604 101.608 76.1306 101.695 76.0442C101.79 75.949 101.919 75.9014 102.084 75.9014C102.257 75.9014 102.386 75.949 102.473 76.0442C102.559 76.1306 102.603 76.2604 102.603 76.4333V81.8431C102.603 82.8031 102.36 83.5252 101.876 84.0096C101.4 84.5025 100.696 84.749 99.7616 84.749ZM99.6059 81.2982C100.012 81.2982 100.363 81.2074 100.657 81.0258C100.951 80.8355 101.176 80.5674 101.331 80.2214C101.496 79.8755 101.578 79.469 101.578 79.002C101.578 78.3014 101.4 77.7479 101.046 77.3414C100.691 76.9263 100.211 76.7187 99.6059 76.7187C99.2081 76.7187 98.8621 76.8139 98.5681 77.0042C98.274 77.1858 98.0448 77.4496 97.8805 77.7955C97.7248 78.1328 97.647 78.535 97.647 79.002C97.647 79.7025 97.8243 80.2604 98.1789 80.6755C98.5335 81.0906 99.0091 81.2982 99.6059 81.2982Z" fill="#3E5BA7"/>
</svg>
