<svg width="120" height="120" viewBox="0 0 120 120" fill="none" xmlns="http://www.w3.org/2000/svg">
<circle cx="60" cy="60" r="60" fill="#FFDEF2"/>
<path fill-rule="evenodd" clip-rule="evenodd" d="M42.2867 35.2196C43.4342 35.9181 43.7982 37.4146 43.0997 38.5621L37.9389 47.0405C36.874 48.7901 34.4738 49.1267 32.9687 47.7373L28.4261 43.5442C27.439 42.633 27.3774 41.0941 28.2886 40.1069C29.1998 39.1198 30.7387 39.0582 31.7259 39.9694L34.8132 42.8193L38.9442 36.0326C39.6427 34.8851 41.1392 34.5211 42.2867 35.2196Z" fill="#C7378D"/>
<path fill-rule="evenodd" clip-rule="evenodd" d="M42.2867 73.7331C43.4342 74.4316 43.7982 75.9281 43.0997 77.0756L37.9389 85.554C36.874 87.3037 34.4738 87.6402 32.9687 86.2509L28.4261 82.0577C27.439 81.1465 27.3774 79.6076 28.2886 78.6204C29.1998 77.6333 30.7387 77.5718 31.7259 78.483L34.8132 81.3328L38.9442 74.5461C39.6427 73.3986 41.1392 73.0346 42.2867 73.7331Z" fill="#C7378D"/>
<path fill-rule="evenodd" clip-rule="evenodd" d="M43.4462 55.322C44.4877 56.1706 44.6441 57.7028 43.7955 58.7442L37.6433 66.2949C36.3495 67.8828 33.9259 67.8886 32.6245 66.3069L28.7743 61.6273C27.9207 60.5899 28.0698 59.057 29.1072 58.2035C30.1445 57.3499 31.6774 57.499 32.531 58.5364L35.1229 61.6866L40.024 55.6713C40.8726 54.6298 42.4048 54.4735 43.4462 55.322Z" fill="#C7378D"/>
<path fill-rule="evenodd" clip-rule="evenodd" d="M47.914 43.3479C47.9309 41.7807 49.215 40.5239 50.7823 40.5408L88.4084 40.9462C89.9756 40.963 91.2324 42.2472 91.2155 43.8144C91.1987 45.3816 89.9145 46.6384 88.3473 46.6215L50.7211 46.2161C49.1539 46.1992 47.8971 44.9151 47.914 43.3479Z" fill="#C7378D"/>
<path fill-rule="evenodd" clip-rule="evenodd" d="M48.2433 79.4595C48.2433 77.8922 49.5138 76.6217 51.0811 76.6217H88.3784C89.9457 76.6217 91.2162 77.8922 91.2162 79.4595C91.2162 81.0268 89.9457 82.2973 88.3784 82.2973H51.0811C49.5138 82.2973 48.2433 81.0268 48.2433 79.4595Z" fill="#C7378D"/>
<path fill-rule="evenodd" clip-rule="evenodd" d="M49.0541 61.6217C49.0541 60.0544 50.3246 58.7838 51.8919 58.7838H88.3784C89.9457 58.7838 91.2162 60.0544 91.2162 61.6217C91.2162 63.189 89.9457 64.4595 88.3784 64.4595H51.8919C50.3246 64.4595 49.0541 63.189 49.0541 61.6217Z" fill="#C7378D"/>
</svg>
