<svg width="59" height="58" viewBox="0 0 59 58" fill="none" xmlns="http://www.w3.org/2000/svg">
<circle cx="18.7347" cy="25.7347" r="15.6122" stroke="#247582" stroke-width="6.2449"/>
<path d="M41.0009 57C42.1932 58.2459 44.1698 58.2894 45.4157 57.0971C46.6616 55.9048 46.705 53.9282 45.5127 52.6823L41.0009 57ZM26.0214 41.3469L41.0009 57L45.5127 52.6823L30.5333 37.0292L26.0214 41.3469Z" fill="#247582"/>
<path d="M37.9581 6.50984C38.8984 5.06233 41.1076 5.40574 41.5641 7.07037L43.3173 13.4632C43.5052 14.1482 44.0422 14.6821 44.7282 14.866L51.131 16.5825C52.7982 17.0294 53.1543 19.2366 51.7122 20.1852L46.1741 23.8281C45.5807 24.2184 45.2388 24.8941 45.2759 25.6034L45.622 32.2232C45.7121 33.947 43.723 34.9677 42.3752 33.8893L37.1993 29.7479C36.6447 29.3042 35.8964 29.1879 35.2333 29.4423L29.0444 31.8171C27.4329 32.4355 25.8474 30.8591 26.4566 29.2441L28.7958 23.0417C29.0464 22.3771 28.9258 21.6295 28.4789 21.0775L24.3079 15.9254C23.2218 14.5838 24.231 12.5889 25.9553 12.6691L32.577 12.9772C33.2865 13.0102 33.9602 12.6645 34.3471 12.0688L37.9581 6.50984Z" fill="#FFD25C" stroke="#F0A246" stroke-width="4.68883"/>
</svg>
