<svg width="360" height="38" viewBox="0 0 360 38" fill="none" xmlns="http://www.w3.org/2000/svg">
<path d="M3.6 30.36C2.48 30.36 1.61333 30.0533 1 29.44C0.386667 28.8267 0.08 27.9333 0.08 26.76V5.04C0.08 3.86667 0.386667 2.97333 1 2.36C1.61333 1.74666 2.48 1.44 3.6 1.44C4.74667 1.44 5.62667 1.74666 6.24 2.36C6.88 2.97333 7.2 3.86667 7.2 5.04V18.24H7.28L12.16 12.32C12.8267 11.52 13.44 10.9333 14 10.56C14.5867 10.16 15.3733 9.96 16.36 9.96C17.3467 9.96 18.1067 10.2 18.64 10.68C19.1733 11.16 19.4533 11.76 19.48 12.48C19.5067 13.2 19.2133 13.92 18.6 14.64L13.32 20.88V18.4L19.24 25.84C19.8267 26.5867 20.0667 27.32 19.96 28.04C19.8533 28.7333 19.5067 29.2933 18.92 29.72C18.36 30.1467 17.64 30.36 16.76 30.36C15.6933 30.36 14.84 30.1733 14.2 29.8C13.56 29.4 12.92 28.7867 12.28 27.96L7.28 21.8H7.2V26.76C7.2 29.16 6 30.36 3.6 30.36ZM28.0031 30.36C26.8831 30.36 26.0165 30.0267 25.4031 29.36C24.7898 28.6933 24.4831 27.7333 24.4831 26.48V13.84C24.4831 12.5867 24.7898 11.6267 25.4031 10.96C26.0165 10.2933 26.8831 9.96 28.0031 9.96C29.1498 9.96 30.0298 10.2933 30.6431 10.96C31.2831 11.6267 31.6031 12.5867 31.6031 13.84V26.48C31.6031 27.7333 31.2965 28.6933 30.6831 29.36C30.0698 30.0267 29.1765 30.36 28.0031 30.36ZM28.0031 7.12C26.7498 7.12 25.7765 6.82667 25.0831 6.24C24.4165 5.65333 24.0831 4.8 24.0831 3.68C24.0831 2.58666 24.4165 1.74666 25.0831 1.16C25.7765 0.573332 26.7498 0.279999 28.0031 0.279999C29.3098 0.279999 30.2965 0.573332 30.9631 1.16C31.6298 1.74666 31.9631 2.58666 31.9631 3.68C31.9631 4.8 31.6298 5.65333 30.9631 6.24C30.2965 6.82667 29.3098 7.12 28.0031 7.12ZM47.2531 30.44C45.2531 30.44 43.5998 30.1333 42.2931 29.52C41.0131 28.9067 40.0531 27.9867 39.4131 26.76C38.7731 25.5067 38.4531 23.9467 38.4531 22.08V15.56H37.0931C36.2398 15.56 35.5731 15.3333 35.0931 14.88C34.6398 14.4267 34.4131 13.7733 34.4131 12.92C34.4131 12.0667 34.6398 11.4267 35.0931 11C35.5731 10.5467 36.2398 10.32 37.0931 10.32H38.4531V7.84C38.4531 6.66667 38.7598 5.77333 39.3731 5.16C39.9865 4.54666 40.8665 4.24 42.0131 4.24C43.1598 4.24 44.0398 4.54666 44.6531 5.16C45.2665 5.77333 45.5731 6.66667 45.5731 7.84V10.32H48.8531C49.7331 10.32 50.3998 10.5467 50.8531 11C51.3331 11.4267 51.5731 12.0667 51.5731 12.92C51.5731 13.7733 51.3331 14.4267 50.8531 14.88C50.3998 15.3333 49.7331 15.56 48.8531 15.56H45.5731V21.84C45.5731 22.8267 45.7998 23.56 46.2531 24.04C46.7331 24.4933 47.4798 24.72 48.4931 24.72C48.8665 24.72 49.2265 24.68 49.5731 24.6C49.9198 24.52 50.2398 24.48 50.5331 24.48C50.9598 24.4533 51.3065 24.5867 51.5731 24.88C51.8398 25.1467 51.9731 25.7733 51.9731 26.76C51.9731 27.56 51.8531 28.24 51.6131 28.8C51.3731 29.3333 50.9465 29.72 50.3331 29.96C49.9598 30.0933 49.4531 30.2 48.8131 30.28C48.1731 30.3867 47.6531 30.44 47.2531 30.44ZM62.0044 30.44C60.4844 30.44 59.1377 30.16 57.9644 29.6C56.8177 29.04 55.911 28.28 55.2444 27.32C54.6044 26.3333 54.2844 25.2133 54.2844 23.96C54.2844 22.52 54.6577 21.3867 55.4044 20.56C56.151 19.7333 57.351 19.1467 59.0044 18.8C60.6577 18.4267 62.8577 18.24 65.6044 18.24H67.8044V21.6H65.6044C64.5644 21.6 63.6977 21.68 63.0044 21.84C62.3377 21.9733 61.8444 22.2 61.5244 22.52C61.2044 22.8133 61.0444 23.2 61.0444 23.68C61.0444 24.2933 61.2577 24.8 61.6844 25.2C62.1377 25.6 62.7777 25.8 63.6044 25.8C64.271 25.8 64.8577 25.6533 65.3644 25.36C65.8977 25.0667 66.3244 24.6667 66.6444 24.16C66.9644 23.6267 67.1244 23.0133 67.1244 22.32V17.68C67.1244 16.72 66.871 16.04 66.3644 15.64C65.8844 15.24 65.0444 15.04 63.8444 15.04C63.2044 15.04 62.4844 15.12 61.6844 15.28C60.8844 15.4133 59.991 15.6667 59.0044 16.04C58.2844 16.3067 57.671 16.3467 57.1644 16.16C56.6577 15.9733 56.2577 15.6533 55.9644 15.2C55.6977 14.7467 55.5644 14.2533 55.5644 13.72C55.591 13.1867 55.7644 12.68 56.0844 12.2C56.431 11.72 56.951 11.3467 57.6444 11.08C58.9244 10.6 60.0977 10.28 61.1644 10.12C62.2577 9.96 63.2577 9.88 64.1644 9.88C66.351 9.88 68.151 10.2 69.5644 10.84C71.0044 11.4533 72.071 12.4133 72.7644 13.72C73.4844 15 73.8444 16.6533 73.8444 18.68V26.76C73.8444 27.9333 73.5644 28.8267 73.0044 29.44C72.4444 30.0533 71.631 30.36 70.5644 30.36C69.471 30.36 68.631 30.0533 68.0444 29.44C67.4844 28.8267 67.2044 27.9333 67.2044 26.76V25.72L67.4444 26.28C67.311 27.1333 67.0044 27.8667 66.5244 28.48C66.0444 29.0933 65.4177 29.5733 64.6444 29.92C63.871 30.2667 62.991 30.44 62.0044 30.44ZM82.6188 37.56C81.4988 37.56 80.6321 37.2533 80.0188 36.64C79.4054 36.0267 79.0988 35.1333 79.0988 33.96V13.52C79.0988 12.3733 79.3921 11.4933 79.9788 10.88C80.5921 10.2667 81.4588 9.96 82.5788 9.96C83.7254 9.96 84.5921 10.2667 85.1788 10.88C85.7921 11.4933 86.0988 12.3733 86.0988 13.52V15.84L85.6588 13.88C86.0321 12.68 86.8054 11.72 87.9788 11C89.1788 10.2533 90.5388 9.88 92.0588 9.88C93.7654 9.88 95.2588 10.2933 96.5388 11.12C97.8454 11.9467 98.8588 13.12 99.5788 14.64C100.299 16.16 100.659 18 100.659 20.16C100.659 22.2667 100.299 24.0933 99.5788 25.64C98.8588 27.1867 97.8454 28.3733 96.5388 29.2C95.2588 30.0267 93.7654 30.44 92.0588 30.44C90.5921 30.44 89.2721 30.0933 88.0988 29.4C86.9254 28.7067 86.1388 27.8 85.7388 26.68H86.2188V33.96C86.2188 35.1333 85.8988 36.0267 85.2588 36.64C84.6454 37.2533 83.7654 37.56 82.6188 37.56ZM89.8188 25.2C90.5388 25.2 91.1654 25.0267 91.6988 24.68C92.2588 24.3067 92.6988 23.76 93.0188 23.04C93.3388 22.2933 93.4988 21.3333 93.4988 20.16C93.4988 18.3733 93.1521 17.0933 92.4588 16.32C91.7654 15.52 90.8854 15.12 89.8188 15.12C89.0988 15.12 88.4588 15.2933 87.8988 15.64C87.3388 15.9867 86.8988 16.5333 86.5788 17.28C86.2588 18 86.0988 18.96 86.0988 20.16C86.0988 21.92 86.4454 23.2 87.1388 24C87.8321 24.8 88.7254 25.2 89.8188 25.2ZM112.583 30.44C110.023 30.44 108.13 29.76 106.903 28.4C105.703 27.0133 105.103 24.9333 105.103 22.16V5.04C105.103 3.86667 105.41 2.97333 106.023 2.36C106.637 1.74666 107.503 1.44 108.623 1.44C109.77 1.44 110.65 1.74666 111.263 2.36C111.903 2.97333 112.223 3.86667 112.223 5.04V21.92C112.223 22.9067 112.41 23.6267 112.783 24.08C113.183 24.5333 113.69 24.76 114.303 24.76C114.49 24.76 114.677 24.7467 114.863 24.72C115.077 24.6667 115.303 24.6267 115.543 24.6C115.997 24.6 116.33 24.7733 116.543 25.12C116.783 25.4667 116.903 26.1733 116.903 27.24C116.903 28.1733 116.717 28.88 116.343 29.36C115.97 29.8133 115.397 30.1067 114.623 30.24C114.41 30.2667 114.103 30.3067 113.703 30.36C113.303 30.4133 112.93 30.44 112.583 30.44ZM127.05 30.44C125.53 30.44 124.183 30.16 123.01 29.6C121.863 29.04 120.956 28.28 120.29 27.32C119.65 26.3333 119.33 25.2133 119.33 23.96C119.33 22.52 119.703 21.3867 120.45 20.56C121.196 19.7333 122.396 19.1467 124.05 18.8C125.703 18.4267 127.903 18.24 130.65 18.24H132.85V21.6H130.65C129.61 21.6 128.743 21.68 128.05 21.84C127.383 21.9733 126.89 22.2 126.57 22.52C126.25 22.8133 126.09 23.2 126.09 23.68C126.09 24.2933 126.303 24.8 126.73 25.2C127.183 25.6 127.823 25.8 128.65 25.8C129.316 25.8 129.903 25.6533 130.41 25.36C130.943 25.0667 131.37 24.6667 131.69 24.16C132.01 23.6267 132.17 23.0133 132.17 22.32V17.68C132.17 16.72 131.916 16.04 131.41 15.64C130.93 15.24 130.09 15.04 128.89 15.04C128.25 15.04 127.53 15.12 126.73 15.28C125.93 15.4133 125.036 15.6667 124.05 16.04C123.33 16.3067 122.716 16.3467 122.21 16.16C121.703 15.9733 121.303 15.6533 121.01 15.2C120.743 14.7467 120.61 14.2533 120.61 13.72C120.636 13.1867 120.81 12.68 121.13 12.2C121.476 11.72 121.996 11.3467 122.69 11.08C123.97 10.6 125.143 10.28 126.21 10.12C127.303 9.96 128.303 9.88 129.21 9.88C131.396 9.88 133.196 10.2 134.61 10.84C136.05 11.4533 137.116 12.4133 137.81 13.72C138.53 15 138.89 16.6533 138.89 18.68V26.76C138.89 27.9333 138.61 28.8267 138.05 29.44C137.49 30.0533 136.676 30.36 135.61 30.36C134.516 30.36 133.676 30.0533 133.09 29.44C132.53 28.8267 132.25 27.9333 132.25 26.76V25.72L132.49 26.28C132.356 27.1333 132.05 27.8667 131.57 28.48C131.09 29.0933 130.463 29.5733 129.69 29.92C128.916 30.2667 128.036 30.44 127.05 30.44ZM154.464 30.44C152.464 30.44 150.811 30.1333 149.504 29.52C148.224 28.9067 147.264 27.9867 146.624 26.76C145.984 25.5067 145.664 23.9467 145.664 22.08V15.56H144.304C143.451 15.56 142.784 15.3333 142.304 14.88C141.851 14.4267 141.624 13.7733 141.624 12.92C141.624 12.0667 141.851 11.4267 142.304 11C142.784 10.5467 143.451 10.32 144.304 10.32H145.664V7.84C145.664 6.66667 145.971 5.77333 146.584 5.16C147.197 4.54666 148.077 4.24 149.224 4.24C150.371 4.24 151.251 4.54666 151.864 5.16C152.477 5.77333 152.784 6.66667 152.784 7.84V10.32H156.064C156.944 10.32 157.611 10.5467 158.064 11C158.544 11.4267 158.784 12.0667 158.784 12.92C158.784 13.7733 158.544 14.4267 158.064 14.88C157.611 15.3333 156.944 15.56 156.064 15.56H152.784V21.84C152.784 22.8267 153.011 23.56 153.464 24.04C153.944 24.4933 154.691 24.72 155.704 24.72C156.077 24.72 156.437 24.68 156.784 24.6C157.131 24.52 157.451 24.48 157.744 24.48C158.171 24.4533 158.517 24.5867 158.784 24.88C159.051 25.1467 159.184 25.7733 159.184 26.76C159.184 27.56 159.064 28.24 158.824 28.8C158.584 29.3333 158.157 29.72 157.544 29.96C157.171 30.0933 156.664 30.2 156.024 30.28C155.384 30.3867 154.864 30.44 154.464 30.44ZM164.692 30C163.972 30 163.385 29.8267 162.932 29.48C162.478 29.1067 162.172 28.64 162.012 28.08C161.852 27.52 161.852 26.92 162.012 26.28C162.198 25.6133 162.545 25 163.052 24.44L172.332 13.96V15.56H164.412C163.558 15.56 162.905 15.3333 162.452 14.88C161.998 14.4267 161.772 13.7733 161.772 12.92C161.772 12.0667 161.998 11.4267 162.452 11C162.905 10.5467 163.558 10.32 164.412 10.32H175.732C176.532 10.32 177.185 10.5067 177.692 10.88C178.198 11.2267 178.532 11.68 178.692 12.24C178.878 12.8 178.892 13.4 178.732 14.04C178.572 14.68 178.238 15.28 177.732 15.84L168.212 26.6V24.76H176.732C178.518 24.76 179.412 25.6267 179.412 27.36C179.412 28.2133 179.185 28.8667 178.732 29.32C178.278 29.7733 177.612 30 176.732 30H164.692Z" fill="#F46E44"/>
<path d="M183.424 19.48C183.424 18.2533 183.757 17.4 184.424 16.92C185.09 16.4133 185.904 16.16 186.864 16.16C187.797 16.16 188.597 16.4133 189.264 16.92C189.93 17.4 190.264 18.2533 190.264 19.48C190.264 20.6533 189.93 21.5067 189.264 22.04C188.597 22.5467 187.797 22.8 186.864 22.8C185.904 22.8 185.09 22.5467 184.424 22.04C183.757 21.5067 183.424 20.6533 183.424 19.48ZM197.99 30C197.27 30 196.683 29.8267 196.23 29.48C195.777 29.1067 195.47 28.64 195.31 28.08C195.15 27.52 195.15 26.92 195.31 26.28C195.497 25.6133 195.843 25 196.35 24.44L205.63 13.96V15.56H197.71C196.857 15.56 196.203 15.3333 195.75 14.88C195.297 14.4267 195.07 13.7733 195.07 12.92C195.07 12.0667 195.297 11.4267 195.75 11C196.203 10.5467 196.857 10.32 197.71 10.32H209.03C209.83 10.32 210.483 10.5067 210.99 10.88C211.497 11.2267 211.83 11.68 211.99 12.24C212.177 12.8 212.19 13.4 212.03 14.04C211.87 14.68 211.537 15.28 211.03 15.84L201.51 26.6V24.76H210.03C211.817 24.76 212.71 25.6267 212.71 27.36C212.71 28.2133 212.483 28.8667 212.03 29.32C211.577 29.7733 210.91 30 210.03 30H197.99ZM226.852 30.44C224.452 30.44 222.372 30.0267 220.612 29.2C218.878 28.3467 217.545 27.1467 216.612 25.6C215.678 24.0533 215.212 22.2267 215.212 20.12C215.212 18.0933 215.652 16.32 216.532 14.8C217.438 13.2533 218.665 12.0533 220.212 11.2C221.785 10.32 223.572 9.88 225.572 9.88C227.038 9.88 228.372 10.12 229.572 10.6C230.772 11.0533 231.798 11.7333 232.652 12.64C233.505 13.52 234.145 14.5867 234.572 15.84C235.025 17.0933 235.252 18.4933 235.252 20.04C235.252 20.5733 235.105 20.9733 234.812 21.24C234.518 21.48 234.052 21.6 233.412 21.6H221.172V18.24H230.052L229.412 18.76C229.412 17.7733 229.278 16.9733 229.012 16.36C228.745 15.7467 228.345 15.28 227.812 14.96C227.305 14.64 226.665 14.48 225.892 14.48C225.065 14.48 224.345 14.68 223.732 15.08C223.145 15.4533 222.692 16.0133 222.372 16.76C222.052 17.5067 221.892 18.44 221.892 19.56V19.92C221.892 21.8133 222.305 23.1733 223.132 24C223.985 24.8 225.292 25.2 227.052 25.2C227.638 25.2 228.305 25.1333 229.052 25C229.825 24.84 230.558 24.6267 231.252 24.36C231.945 24.0933 232.545 24.0533 233.052 24.24C233.558 24.4 233.945 24.6933 234.212 25.12C234.505 25.52 234.665 25.9867 234.692 26.52C234.718 27.0267 234.598 27.5333 234.332 28.04C234.065 28.52 233.625 28.8933 233.012 29.16C232.078 29.5867 231.078 29.9067 230.012 30.12C228.972 30.3333 227.918 30.44 226.852 30.44ZM243.039 30.36C241.919 30.36 241.052 30.0533 240.439 29.44C239.826 28.8267 239.519 27.9333 239.519 26.76V13.52C239.519 12.3733 239.812 11.4933 240.399 10.88C241.012 10.2667 241.879 9.96 242.999 9.96C244.119 9.96 244.972 10.2667 245.559 10.88C246.146 11.4933 246.439 12.3733 246.439 13.52V15.4L245.999 13.76C246.639 12.5067 247.546 11.5467 248.719 10.88C249.919 10.2133 251.279 9.88 252.799 9.88C254.372 9.88 255.666 10.1867 256.679 10.8C257.692 11.3867 258.452 12.32 258.959 13.6C259.466 14.8533 259.719 16.44 259.719 18.36V26.76C259.719 27.9333 259.412 28.8267 258.799 29.44C258.186 30.0533 257.306 30.36 256.159 30.36C255.012 30.36 254.132 30.0533 253.519 29.44C252.906 28.8267 252.599 27.9333 252.599 26.76V18.64C252.599 17.44 252.386 16.5867 251.959 16.08C251.559 15.5733 250.959 15.32 250.159 15.32C249.092 15.32 248.239 15.6667 247.599 16.36C246.959 17.0267 246.639 17.9333 246.639 19.08V26.76C246.639 29.16 245.439 30.36 243.039 30.36ZM275.297 30.44C273.297 30.44 271.644 30.1333 270.337 29.52C269.057 28.9067 268.097 27.9867 267.457 26.76C266.817 25.5067 266.497 23.9467 266.497 22.08V15.56H265.137C264.284 15.56 263.617 15.3333 263.137 14.88C262.684 14.4267 262.457 13.7733 262.457 12.92C262.457 12.0667 262.684 11.4267 263.137 11C263.617 10.5467 264.284 10.32 265.137 10.32H266.497V7.84C266.497 6.66667 266.804 5.77333 267.417 5.16C268.03 4.54666 268.91 4.24 270.057 4.24C271.204 4.24 272.084 4.54666 272.697 5.16C273.31 5.77333 273.617 6.66667 273.617 7.84V10.32H276.897C277.777 10.32 278.444 10.5467 278.897 11C279.377 11.4267 279.617 12.0667 279.617 12.92C279.617 13.7733 279.377 14.4267 278.897 14.88C278.444 15.3333 277.777 15.56 276.897 15.56H273.617V21.84C273.617 22.8267 273.844 23.56 274.297 24.04C274.777 24.4933 275.524 24.72 276.537 24.72C276.91 24.72 277.27 24.68 277.617 24.6C277.964 24.52 278.284 24.48 278.577 24.48C279.004 24.4533 279.35 24.5867 279.617 24.88C279.884 25.1467 280.017 25.7733 280.017 26.76C280.017 27.56 279.897 28.24 279.657 28.8C279.417 29.3333 278.99 29.72 278.377 29.96C278.004 30.0933 277.497 30.2 276.857 30.28C276.217 30.3867 275.697 30.44 275.297 30.44ZM286.848 30.36C285.675 30.36 284.768 30.0533 284.128 29.44C283.515 28.8267 283.208 27.9333 283.208 26.76V13.52C283.208 12.3733 283.501 11.4933 284.088 10.88C284.701 10.2667 285.568 9.96 286.688 9.96C287.808 9.96 288.661 10.2667 289.248 10.88C289.835 11.4933 290.128 12.3733 290.128 13.52V15.16H289.728C289.995 13.56 290.675 12.2933 291.768 11.36C292.888 10.4267 294.275 9.93333 295.928 9.88C296.701 9.85333 297.275 10.0533 297.648 10.48C298.048 10.88 298.261 11.64 298.288 12.76C298.288 13.72 298.088 14.48 297.688 15.04C297.288 15.6 296.528 15.9333 295.408 16.04L294.488 16.12C293.075 16.2533 292.048 16.6533 291.408 17.32C290.768 17.96 290.448 18.92 290.448 20.2V26.76C290.448 27.9333 290.141 28.8267 289.528 29.44C288.915 30.0533 288.021 30.36 286.848 30.36ZM308.397 30.44C306.877 30.44 305.53 30.16 304.357 29.6C303.21 29.04 302.303 28.28 301.637 27.32C300.997 26.3333 300.677 25.2133 300.677 23.96C300.677 22.52 301.05 21.3867 301.797 20.56C302.543 19.7333 303.743 19.1467 305.397 18.8C307.05 18.4267 309.25 18.24 311.997 18.24H314.197V21.6H311.997C310.957 21.6 310.09 21.68 309.397 21.84C308.73 21.9733 308.237 22.2 307.917 22.52C307.597 22.8133 307.437 23.2 307.437 23.68C307.437 24.2933 307.65 24.8 308.077 25.2C308.53 25.6 309.17 25.8 309.997 25.8C310.663 25.8 311.25 25.6533 311.757 25.36C312.29 25.0667 312.717 24.6667 313.037 24.16C313.357 23.6267 313.517 23.0133 313.517 22.32V17.68C313.517 16.72 313.263 16.04 312.757 15.64C312.277 15.24 311.437 15.04 310.237 15.04C309.597 15.04 308.877 15.12 308.077 15.28C307.277 15.4133 306.383 15.6667 305.397 16.04C304.677 16.3067 304.063 16.3467 303.557 16.16C303.05 15.9733 302.65 15.6533 302.357 15.2C302.09 14.7467 301.957 14.2533 301.957 13.72C301.983 13.1867 302.157 12.68 302.477 12.2C302.823 11.72 303.343 11.3467 304.037 11.08C305.317 10.6 306.49 10.28 307.557 10.12C308.65 9.96 309.65 9.88 310.557 9.88C312.743 9.88 314.543 10.2 315.957 10.84C317.397 11.4533 318.463 12.4133 319.157 13.72C319.877 15 320.237 16.6533 320.237 18.68V26.76C320.237 27.9333 319.957 28.8267 319.397 29.44C318.837 30.0533 318.023 30.36 316.957 30.36C315.863 30.36 315.023 30.0533 314.437 29.44C313.877 28.8267 313.597 27.9333 313.597 26.76V25.72L313.837 26.28C313.703 27.1333 313.397 27.8667 312.917 28.48C312.437 29.0933 311.81 29.5733 311.037 29.92C310.263 30.2667 309.383 30.44 308.397 30.44ZM332.971 30.44C330.411 30.44 328.518 29.76 327.291 28.4C326.091 27.0133 325.491 24.9333 325.491 22.16V5.04C325.491 3.86667 325.798 2.97333 326.411 2.36C327.024 1.74666 327.891 1.44 329.011 1.44C330.158 1.44 331.038 1.74666 331.651 2.36C332.291 2.97333 332.611 3.86667 332.611 5.04V21.92C332.611 22.9067 332.798 23.6267 333.171 24.08C333.571 24.5333 334.078 24.76 334.691 24.76C334.878 24.76 335.064 24.7467 335.251 24.72C335.464 24.6667 335.691 24.6267 335.931 24.6C336.384 24.6 336.718 24.7733 336.931 25.12C337.171 25.4667 337.291 26.1733 337.291 27.24C337.291 28.1733 337.104 28.88 336.731 29.36C336.358 29.8133 335.784 30.1067 335.011 30.24C334.798 30.2667 334.491 30.3067 334.091 30.36C333.691 30.4133 333.318 30.44 332.971 30.44ZM351.122 30.44C348.722 30.44 346.642 30.0267 344.882 29.2C343.149 28.3467 341.815 27.1467 340.882 25.6C339.949 24.0533 339.482 22.2267 339.482 20.12C339.482 18.0933 339.922 16.32 340.802 14.8C341.709 13.2533 342.935 12.0533 344.482 11.2C346.055 10.32 347.842 9.88 349.842 9.88C351.309 9.88 352.642 10.12 353.842 10.6C355.042 11.0533 356.069 11.7333 356.922 12.64C357.775 13.52 358.415 14.5867 358.842 15.84C359.295 17.0933 359.522 18.4933 359.522 20.04C359.522 20.5733 359.375 20.9733 359.082 21.24C358.789 21.48 358.322 21.6 357.682 21.6H345.442V18.24H354.322L353.682 18.76C353.682 17.7733 353.549 16.9733 353.282 16.36C353.015 15.7467 352.615 15.28 352.082 14.96C351.575 14.64 350.935 14.48 350.162 14.48C349.335 14.48 348.615 14.68 348.002 15.08C347.415 15.4533 346.962 16.0133 346.642 16.76C346.322 17.5067 346.162 18.44 346.162 19.56V19.92C346.162 21.8133 346.575 23.1733 347.402 24C348.255 24.8 349.562 25.2 351.322 25.2C351.909 25.2 352.575 25.1333 353.322 25C354.095 24.84 354.829 24.6267 355.522 24.36C356.215 24.0933 356.815 24.0533 357.322 24.24C357.829 24.4 358.215 24.6933 358.482 25.12C358.775 25.52 358.935 25.9867 358.962 26.52C358.989 27.0267 358.869 27.5333 358.602 28.04C358.335 28.52 357.895 28.8933 357.282 29.16C356.349 29.5867 355.349 29.9067 354.282 30.12C353.242 30.3333 352.189 30.44 351.122 30.44Z" fill="white"/>
</svg>
