<svg width="120" height="120" viewBox="0 0 120 120" fill="none" xmlns="http://www.w3.org/2000/svg">
<circle cx="60" cy="60" r="60" fill="#D5FCF9"/>
<path fill-rule="evenodd" clip-rule="evenodd" d="M81.6736 38.5388L31.496 41.345L54.7908 60.3259C56.0842 61.3798 57.9604 61.3035 59.164 60.1481L81.6736 38.5388ZM29.1903 44.2399L30.8115 73.2292L41.5708 54.3277L29.1903 44.2399ZM33.1505 76.6009L85.0442 73.6988L70.6694 54.2329L61.7268 62.8178C59.1746 65.2679 55.1959 65.4296 52.4532 63.1949L44.4798 56.698L33.1505 76.6009ZM90.041 74.2357C90.338 73.5338 90.4833 72.755 90.4379 71.9428L88.6294 39.6042C88.4705 36.7628 86.0383 34.5883 83.1969 34.7472L30.2793 37.7065C27.4379 37.8654 25.2633 40.2976 25.4222 43.139L27.2307 75.4775C27.3896 78.3189 29.8218 80.4935 32.6632 80.3346L85.5808 77.3752C87.2437 77.2823 88.6781 76.4107 89.5502 75.1342L90.2972 74.5825L90.041 74.2357ZM86.599 69.5745L73.3613 51.6486L84.9731 40.5013L86.599 69.5745Z" fill="#2E8794"/>
<path d="M84.2877 59.6569C85.05 58.4833 86.8413 58.7617 87.2114 60.1114L89.6423 68.9753C89.7946 69.5307 90.23 69.9636 90.7863 70.1128L99.664 72.4927C101.016 72.8551 101.305 74.6447 100.135 75.4138L92.4564 80.4648C91.9752 80.7813 91.6981 81.3292 91.7281 81.9043L92.208 91.083C92.2811 92.4806 90.6683 93.3082 89.5755 92.4339L82.3988 86.6916C81.9491 86.3318 81.3424 86.2375 80.8047 86.4438L72.2236 89.7366C70.917 90.238 69.6315 88.9599 70.1254 87.6504L73.3688 79.0505C73.572 78.5116 73.4742 77.9055 73.1119 77.4579L67.3285 70.3142C66.4479 69.2265 67.2663 67.609 68.6643 67.674L77.8456 68.1012C78.4208 68.128 78.9671 67.8477 79.2808 67.3647L84.2877 59.6569Z" fill="#FBFCD5"/>
<path fill-rule="evenodd" clip-rule="evenodd" d="M82.6936 58.6214C84.3496 56.072 88.2406 56.6768 89.0446 59.6087L91.4331 68.3182L100.156 70.6567C103.093 71.4438 103.72 75.3313 101.18 77.0019L93.6348 81.9649L94.1063 90.9837C94.2651 94.0197 90.7617 95.8174 88.3879 93.9181L81.3363 88.2759L72.9046 91.5113C70.0663 92.6004 67.274 89.8241 68.3468 86.9796L71.5337 78.5295L65.8511 71.5103C63.9382 69.1475 65.7158 65.6339 68.7526 65.7752L77.774 66.195L82.6936 58.6214ZM85.5428 61.2142L80.8749 68.4002C80.1935 69.4492 79.0068 70.0582 77.7572 70L69.1974 69.6017L74.5893 76.2618C75.3764 77.234 75.5888 78.5508 75.1474 79.7213L72.1235 87.739L80.1237 84.6691C81.2916 84.221 82.6096 84.4258 83.5864 85.2074L90.2773 90.5609L89.8298 82.0036C89.7645 80.7543 90.3666 79.5642 91.4118 78.8767L98.5709 74.1676L90.2941 71.9488C89.0858 71.6249 88.14 70.6845 87.8091 69.4781L85.5428 61.2142Z" fill="#2E8794"/>
</svg>
