<svg width="120" height="120" viewBox="0 0 120 120" fill="none" xmlns="http://www.w3.org/2000/svg">
<circle cx="60" cy="60" r="60" fill="#E3EAFC"/>
<path d="M41.1754 64.0325C39.454 64.0325 37.9071 63.6719 36.5346 62.9508C35.1622 62.2297 34.0223 61.1829 33.1151 59.8105C32.2079 58.4147 31.5915 56.7166 31.2658 54.7161L31.9637 55.7629H29.7654C29.2769 55.7629 28.8698 55.6117 28.5442 55.3093C28.2185 54.9836 28.0557 54.5765 28.0557 54.088C28.0557 53.5995 28.2185 53.2041 28.5442 52.9017C28.8698 52.576 29.2769 52.4132 29.7654 52.4132H31.7892L31.0216 53.2506C30.9983 52.5295 30.9867 51.8665 30.9867 51.2617C30.9867 50.6336 31.0216 50.0056 31.0913 49.3775L31.8241 50.2498H29.7654C29.2769 50.2498 28.8698 50.0986 28.5442 49.7962C28.2185 49.4705 28.0557 49.0635 28.0557 48.575C28.0557 48.0865 28.2185 47.691 28.5442 47.3886C28.8698 47.0629 29.2769 46.9001 29.7654 46.9001H32.2079L31.2658 47.9818C31.5915 45.958 32.2079 44.2599 33.1151 42.8874C34.0223 41.515 35.1622 40.4682 36.5346 39.7471C37.9071 39.026 39.454 38.6654 41.1754 38.6654C42.1524 38.6654 43.141 38.8166 44.1413 39.119C45.1415 39.3982 46.0487 39.8518 46.8629 40.4798C47.2816 40.7822 47.5608 41.1428 47.7003 41.5615C47.8632 41.9802 47.8981 42.3989 47.805 42.8177C47.712 43.2364 47.5259 43.5969 47.2467 43.8993C46.9908 44.1785 46.6535 44.3529 46.2348 44.4227C45.8161 44.4925 45.3509 44.3878 44.8391 44.1087C44.4204 43.8295 43.9086 43.6202 43.3038 43.4806C42.7223 43.3178 42.1407 43.2364 41.5592 43.2364C40.7683 43.2364 40.0472 43.3992 39.3958 43.7249C38.7678 44.0273 38.2211 44.5158 37.7559 45.1904C37.3139 45.865 36.965 46.7489 36.7091 47.8422L36.0461 46.9001H40.3728C40.8613 46.9001 41.2568 47.0629 41.5592 47.3886C41.8849 47.7143 42.0477 48.1097 42.0477 48.575C42.0477 49.0402 41.8849 49.4357 41.5592 49.7613C41.2568 50.087 40.8613 50.2498 40.3728 50.2498H35.4878L36.3951 49.4822C36.3718 49.9939 36.3602 50.5639 36.3602 51.1919C36.3602 51.82 36.3718 52.4132 36.3951 52.9715L35.5576 52.4132H40.3728C40.8613 52.4132 41.2568 52.576 41.5592 52.9017C41.8849 53.2273 42.0477 53.6228 42.0477 54.088C42.0477 54.5533 41.8849 54.9487 41.5592 55.2744C41.2568 55.6001 40.8613 55.7629 40.3728 55.7629H36.1508L36.7091 54.8557C36.965 55.949 37.3139 56.8329 37.7559 57.5075C38.2211 58.1821 38.7678 58.6823 39.3958 59.0079C40.0472 59.3103 40.7683 59.4615 41.5592 59.4615C42.164 59.4615 42.7339 59.3917 43.2689 59.2522C43.8272 59.1126 44.3622 58.8916 44.874 58.5892C45.3858 58.3101 45.851 58.2054 46.2697 58.2752C46.6884 58.345 47.0257 58.5311 47.2816 58.8335C47.5608 59.1359 47.7352 59.4848 47.805 59.8802C47.8981 60.2757 47.8748 60.6828 47.7352 61.1015C47.5956 61.4969 47.3165 61.8459 46.8978 62.1483C46.1301 62.7763 45.2346 63.2532 44.211 63.5789C43.1875 63.8813 42.1756 64.0325 41.1754 64.0325Z" fill="#3E5BA7"/>
<path d="M58.992 64.0325C57.8056 64.0325 56.5844 63.8813 55.3282 63.5789C54.0721 63.2765 52.9206 62.8229 51.8738 62.2181C51.3388 61.9157 50.9666 61.5435 50.7573 61.1015C50.5712 60.6595 50.513 60.2059 50.5828 59.7407C50.6758 59.2754 50.8619 58.88 51.1411 58.5543C51.4435 58.2054 51.8157 57.9844 52.2577 57.8914C52.7229 57.7983 53.2347 57.903 53.7929 58.2054C54.6071 58.6241 55.4329 58.9498 56.2703 59.1824C57.131 59.415 58.0033 59.5313 58.8873 59.5313C59.7712 59.5313 60.5273 59.3801 61.1553 59.0777C61.7834 58.7753 62.2603 58.3566 62.5859 57.8216C62.9116 57.2865 63.0744 56.6585 63.0744 55.9374C63.0744 54.8208 62.7139 53.9252 61.9928 53.2506C61.2949 52.576 60.3412 52.2387 59.1315 52.2387C58.5267 52.2387 57.9103 52.3434 57.2822 52.5527C56.6774 52.7388 56.0493 53.0761 55.398 53.5646C55.1654 53.7507 54.863 53.9252 54.4908 54.088C54.1186 54.2509 53.7232 54.3323 53.3044 54.3323C52.5833 54.3323 52.0483 54.1695 51.6994 53.8438C51.3504 53.4949 51.176 52.9947 51.176 52.3434V41.387C51.176 40.6194 51.3737 40.0379 51.7692 39.6424C52.1879 39.247 52.7694 39.0492 53.5138 39.0492H64.7144C65.482 39.0492 66.0636 39.247 66.459 39.6424C66.8545 40.0146 67.0522 40.5612 67.0522 41.2824C67.0522 41.9802 66.8545 42.5269 66.459 42.9223C66.0636 43.2945 65.482 43.4806 64.7144 43.4806H56.375V50.1451H55.0491C55.6306 49.424 56.3983 48.8657 57.352 48.4703C58.3057 48.0748 59.3525 47.8771 60.4924 47.8771C62.0509 47.8771 63.4117 48.2144 64.5748 48.889C65.7379 49.5403 66.6451 50.4592 67.2965 51.6455C67.9478 52.8319 68.2735 54.2043 68.2735 55.7629C68.2735 57.3912 67.9013 58.8335 67.1569 60.0896C66.4125 61.3225 65.3425 62.2878 63.9468 62.9857C62.551 63.6836 60.8994 64.0325 58.992 64.0325Z" fill="#3E5BA7"/>
<path d="M79.8791 64.0325C76.9016 64.0325 74.622 62.9275 73.0401 60.7177C71.4816 58.4845 70.7023 55.3325 70.7023 51.2617C70.7023 48.5401 71.0513 46.2488 71.7491 44.3878C72.4702 42.5036 73.5054 41.0846 74.8546 40.1309C76.227 39.1539 77.9019 38.6654 79.8791 38.6654C82.8799 38.6654 85.1596 39.7471 86.7181 41.9104C88.2767 44.0505 89.056 47.1676 89.056 51.2617C89.056 53.9834 88.6954 56.2979 87.9743 58.2054C87.2764 60.0896 86.2529 61.5318 84.9037 62.5321C83.5545 63.5324 81.8797 64.0325 79.8791 64.0325ZM79.8791 59.636C81.2283 59.636 82.2286 58.973 82.8799 57.6471C83.5313 56.2979 83.8569 54.1695 83.8569 51.2617C83.8569 48.354 83.5313 46.2604 82.8799 44.981C82.2286 43.7016 81.2283 43.0619 79.8791 43.0619C78.53 43.0619 77.5297 43.7016 76.8784 44.981C76.227 46.2604 75.9014 48.354 75.9014 51.2617C75.9014 54.1695 76.227 56.2979 76.8784 57.6471C77.5297 58.973 78.53 59.636 79.8791 59.636Z" fill="#3E5BA7"/>
<path d="M17.0768 82.1045C16.8242 82.1045 16.6283 82.0348 16.4889 81.8955C16.3583 81.7561 16.293 81.5558 16.293 81.2945V73.5213C16.293 73.2513 16.3583 73.0466 16.4889 72.9073C16.6283 72.7592 16.8068 72.6852 17.0246 72.6852C17.2249 72.6852 17.3729 72.7244 17.4687 72.8028C17.5733 72.8724 17.6952 72.9944 17.8345 73.1686L22.8381 79.6615H22.4985V73.4821C22.4985 73.2295 22.5638 73.0336 22.6944 72.8942C22.8338 72.7549 23.0298 72.6852 23.2823 72.6852C23.5349 72.6852 23.7265 72.7549 23.8572 72.8942C23.9878 73.0336 24.0531 73.2295 24.0531 73.4821V81.3206C24.0531 81.5645 23.9921 81.7561 23.8702 81.8955C23.7483 82.0348 23.5828 82.1045 23.3738 82.1045C23.1735 82.1045 23.0123 82.0653 22.8904 81.9869C22.7772 81.9085 22.6509 81.7822 22.5115 81.608L17.521 75.1151H17.8476V81.2945C17.8476 81.5558 17.7823 81.7561 17.6516 81.8955C17.521 82.0348 17.3294 82.1045 17.0768 82.1045Z" fill="#3E5BA7"/>
<path d="M29.8934 82.1306C29.2576 82.1306 28.6959 82.0479 28.2081 81.8824C27.7291 81.7169 27.3241 81.473 26.9932 81.1508C26.6622 80.8198 26.414 80.4105 26.2485 79.9228C26.083 79.435 26.0003 78.8689 26.0003 78.2244V73.5344C26.0003 73.2469 26.07 73.0336 26.2093 72.8942C26.3574 72.7549 26.5664 72.6852 26.8364 72.6852C27.1064 72.6852 27.3111 72.7549 27.4504 72.8942C27.5985 73.0336 27.6725 73.2469 27.6725 73.5344V78.2113C27.6725 79.0387 27.8598 79.6615 28.2343 80.0795C28.6175 80.4889 29.1705 80.6935 29.8934 80.6935C30.6163 80.6935 31.165 80.4889 31.5395 80.0795C31.914 79.6615 32.1013 79.0387 32.1013 78.2113V73.5344C32.1013 73.2469 32.171 73.0336 32.3103 72.8942C32.4584 72.7549 32.6674 72.6852 32.9374 72.6852C33.1987 72.6852 33.399 72.7549 33.5384 72.8942C33.6864 73.0336 33.7604 73.2469 33.7604 73.5344V78.2244C33.7604 79.0779 33.6124 79.7965 33.3163 80.38C33.0288 80.9635 32.5977 81.4034 32.0229 81.6995C31.4481 81.9869 30.7383 82.1306 29.8934 82.1306Z" fill="#3E5BA7"/>
<path d="M36.5468 82.1045C36.2768 82.1045 36.0678 82.0305 35.9197 81.8824C35.7804 81.7256 35.7107 81.5122 35.7107 81.2422V73.6389C35.7107 73.3602 35.7847 73.1511 35.9328 73.0118C36.0808 72.8637 36.2899 72.7897 36.5599 72.7897H39.7083C40.7186 72.7897 41.4981 73.0336 42.0468 73.5213C42.5955 74.0003 42.8699 74.6753 42.8699 75.5462C42.8699 76.1124 42.7436 76.6001 42.491 77.0094C42.2472 77.4188 41.8901 77.7323 41.4198 77.9501C40.9494 78.1678 40.379 78.2767 39.7083 78.2767L39.8259 78.0807H40.257C40.6141 78.0807 40.9233 78.1678 41.1846 78.342C41.4546 78.5162 41.6897 78.7905 41.8901 79.165L42.8699 80.981C42.9744 81.1639 43.0223 81.3424 43.0136 81.5166C43.0049 81.6908 42.9396 81.8345 42.8176 81.9477C42.6957 82.0522 42.5171 82.1045 42.282 82.1045C42.0468 82.1045 41.8552 82.0566 41.7072 81.9608C41.5591 81.8563 41.4285 81.6995 41.3152 81.4905L39.9958 79.0605C39.839 78.7644 39.6517 78.5684 39.434 78.4726C39.225 78.3681 38.955 78.3159 38.624 78.3159H37.3829V81.2422C37.3829 81.5122 37.3132 81.7256 37.1739 81.8824C37.0345 82.0305 36.8255 82.1045 36.5468 82.1045ZM37.3829 77.0748H39.4209C40.0219 77.0748 40.4748 76.9528 40.7796 76.709C41.0931 76.4564 41.2499 76.0819 41.2499 75.5854C41.2499 75.0977 41.0931 74.7319 40.7796 74.488C40.4748 74.2355 40.0219 74.1092 39.4209 74.1092H37.3829V77.0748Z" fill="#3E5BA7"/>
<path d="M51.4143 82.1175C50.8395 82.1175 50.343 81.9695 49.925 81.6734C49.5156 81.3772 49.2413 80.981 49.1019 80.4845L49.2456 80.3408V81.5427C49.2456 81.7169 49.1977 81.8519 49.1019 81.9477C49.0148 82.0435 48.8885 82.0914 48.7231 82.0914C48.5489 82.0914 48.4182 82.0435 48.3311 81.9477C48.244 81.8519 48.2005 81.7169 48.2005 81.5427V73.2339C48.2005 73.0597 48.244 72.929 48.3311 72.842C48.4182 72.7461 48.5489 72.6982 48.7231 72.6982C48.8885 72.6982 49.0192 72.7461 49.115 72.842C49.2108 72.929 49.2587 73.0597 49.2587 73.2339V77.127H49.1019C49.25 76.6393 49.5287 76.2517 49.938 75.9643C50.3474 75.6769 50.8395 75.5332 51.4143 75.5332C51.9891 75.5332 52.4856 75.6682 52.9036 75.9382C53.3217 76.1995 53.6439 76.5783 53.8704 77.0748C54.1055 77.5625 54.2231 78.146 54.2231 78.8254C54.2231 79.496 54.1055 80.0795 53.8704 80.576C53.6439 81.0637 53.3173 81.4426 52.8905 81.7126C52.4725 81.9826 51.9804 82.1175 51.4143 82.1175ZM51.1922 81.2684C51.5928 81.2684 51.9369 81.1726 52.2243 80.981C52.5204 80.7894 52.7468 80.5106 52.9036 80.1449C53.0691 79.7791 53.1518 79.3392 53.1518 78.8254C53.1518 78.0328 52.9733 77.4275 52.6162 77.0094C52.2678 76.5914 51.7932 76.3824 51.1922 76.3824C50.8003 76.3824 50.4562 76.4782 50.1601 76.6698C49.864 76.8527 49.6332 77.127 49.4677 77.4928C49.3109 77.8499 49.2326 78.2941 49.2326 78.8254C49.2326 79.6092 49.4111 80.2145 49.7682 80.6413C50.1253 81.0593 50.6 81.2684 51.1922 81.2684Z" fill="#3E5BA7"/>
<path d="M58.6781 82.1175C58.0075 82.1175 57.4283 81.9869 56.9406 81.7256C56.4615 81.4556 56.087 81.0768 55.817 80.589C55.5558 80.1013 55.4251 79.5178 55.4251 78.8384C55.4251 78.1765 55.5558 77.6017 55.817 77.114C56.0783 76.6175 56.4354 76.2299 56.8883 75.9512C57.3499 75.6725 57.8812 75.5332 58.4821 75.5332C58.9089 75.5332 59.2921 75.6072 59.6318 75.7553C59.9715 75.8946 60.2589 76.0993 60.494 76.3693C60.7379 76.6393 60.9208 76.9659 61.0427 77.3491C61.1734 77.7323 61.2387 78.1634 61.2387 78.6425C61.2387 78.7818 61.1995 78.8863 61.1211 78.956C61.0427 79.017 60.9295 79.0475 60.7814 79.0475H56.2351V78.3551H60.5332L60.3242 78.5249C60.3242 78.0546 60.2545 77.6583 60.1152 77.336C59.9758 77.0051 59.7711 76.7525 59.5011 76.5783C59.2399 76.4041 58.9089 76.317 58.5083 76.317C58.0641 76.317 57.6852 76.4215 57.3717 76.6306C57.0668 76.8309 56.836 77.114 56.6793 77.4797C56.5225 77.8368 56.4441 78.2549 56.4441 78.7339V78.8123C56.4441 79.6136 56.6357 80.2232 57.0189 80.6413C57.4109 81.0593 57.9639 81.2684 58.6781 81.2684C58.9742 81.2684 59.266 81.2292 59.5534 81.1508C59.8495 81.0724 60.1369 80.9418 60.4156 80.7589C60.5376 80.6805 60.6464 80.6456 60.7422 80.6544C60.8468 80.6544 60.9295 80.6848 60.9905 80.7458C61.0514 80.7981 61.0906 80.8677 61.108 80.9548C61.1342 81.0332 61.1255 81.1203 61.0819 81.2161C61.0471 81.3119 60.973 81.3947 60.8598 81.4643C60.5724 81.6734 60.2327 81.8345 59.8408 81.9477C59.4489 82.0609 59.0613 82.1175 58.6781 82.1175Z" fill="#3E5BA7"/>
<path d="M63.2927 82.0653C63.1185 82.0653 62.9879 82.0174 62.9008 81.9216C62.8137 81.8171 62.7702 81.6734 62.7702 81.4905V76.1472C62.7702 75.9643 62.8137 75.8249 62.9008 75.7291C62.9879 75.6333 63.1185 75.5854 63.2927 75.5854C63.4582 75.5854 63.5888 75.6333 63.6847 75.7291C63.7805 75.8249 63.8284 75.9643 63.8284 76.1472V81.4905C63.8284 81.6734 63.7805 81.8171 63.6847 81.9216C63.5976 82.0174 63.4669 82.0653 63.2927 82.0653ZM63.2927 74.1222C63.075 74.1222 62.9052 74.0656 62.7832 73.9524C62.6613 73.8305 62.6003 73.6694 62.6003 73.469C62.6003 73.26 62.6613 73.1032 62.7832 72.9987C62.9052 72.8855 63.075 72.8289 63.2927 72.8289C63.5192 72.8289 63.689 72.8855 63.8022 72.9987C63.9242 73.1032 63.9851 73.26 63.9851 73.469C63.9851 73.6694 63.9242 73.8305 63.8022 73.9524C63.689 74.0656 63.5192 74.1222 63.2927 74.1222Z" fill="#3E5BA7"/>
<path d="M69.9063 82C69.7147 82 69.5666 81.9521 69.4621 81.8563C69.3663 81.7518 69.3184 81.6037 69.3184 81.4121V73.3776C69.3184 73.186 69.3663 73.0423 69.4621 72.9465C69.5666 72.842 69.7147 72.7897 69.9063 72.7897H74.7662C74.9142 72.7897 75.0275 72.8289 75.1058 72.9073C75.1842 72.9857 75.2234 73.0945 75.2234 73.2339C75.2234 73.3819 75.1842 73.4952 75.1058 73.5735C75.0275 73.6519 74.9142 73.6911 74.7662 73.6911H70.3635V76.8788H74.4918C74.6399 76.8788 74.7531 76.918 74.8315 76.9964C74.9099 77.066 74.9491 77.1749 74.9491 77.323C74.9491 77.471 74.9099 77.5843 74.8315 77.6626C74.7531 77.741 74.6399 77.7802 74.4918 77.7802H70.3635V81.0985H74.7662C74.9142 81.0985 75.0275 81.1377 75.1058 81.2161C75.1842 81.2945 75.2234 81.4034 75.2234 81.5427C75.2234 81.6908 75.1842 81.804 75.1058 81.8824C75.0275 81.9608 74.9142 82 74.7662 82H69.9063Z" fill="#3E5BA7"/>
<path d="M77.3269 82.0914C77.1527 82.0914 77.0177 82.0435 76.9219 81.9477C76.8348 81.8519 76.7912 81.7169 76.7912 81.5427V76.0949C76.7912 75.9208 76.8348 75.7901 76.9219 75.703C77.009 75.6072 77.1353 75.5593 77.3007 75.5593C77.4662 75.5593 77.5925 75.6072 77.6796 75.703C77.7754 75.7901 77.8233 75.9208 77.8233 76.0949V77.1531H77.6927C77.832 76.6393 78.0977 76.243 78.4896 75.9643C78.8815 75.6856 79.3649 75.5375 79.9397 75.5201C80.0704 75.5114 80.1749 75.5419 80.2533 75.6116C80.3316 75.6725 80.3752 75.7814 80.3839 75.9382C80.3926 76.0862 80.3578 76.2038 80.2794 76.2909C80.201 76.378 80.0791 76.4303 79.9136 76.4477L79.7046 76.4738C79.1123 76.5261 78.6551 76.7177 78.3328 77.0486C78.0193 77.3709 77.8625 77.8151 77.8625 78.3812V81.5427C77.8625 81.7169 77.8146 81.8519 77.7188 81.9477C77.6317 82.0435 77.5011 82.0914 77.3269 82.0914Z" fill="#3E5BA7"/>
<path d="M82.6801 82.0914C82.5146 82.0914 82.384 82.0435 82.2882 81.9477C82.2011 81.8519 82.1576 81.7169 82.1576 81.5427V76.4738H81.3214C81.1821 76.4738 81.0689 76.439 80.9818 76.3693C80.9034 76.2909 80.8642 76.1864 80.8642 76.0558C80.8642 75.9251 80.9034 75.8249 80.9818 75.7553C81.0689 75.6856 81.1821 75.6508 81.3214 75.6508H82.445L82.1576 75.9251V75.4287C82.1576 74.6013 82.3579 73.9698 82.7585 73.5344C83.1679 73.0989 83.7645 72.8463 84.5483 72.7766L84.9272 72.7374C85.0491 72.7287 85.1449 72.7505 85.2146 72.8028C85.293 72.855 85.3409 72.9203 85.3583 72.9987C85.3844 73.0771 85.3888 73.1598 85.3714 73.2469C85.3539 73.3253 85.3148 73.395 85.2538 73.456C85.1928 73.5169 85.1188 73.5518 85.0317 73.5605L84.7312 73.5866C84.1999 73.6302 83.8124 73.7913 83.5685 74.07C83.3333 74.3487 83.2158 74.758 83.2158 75.298V75.8467L83.059 75.6508H84.6267C84.7748 75.6508 84.888 75.6856 84.9664 75.7553C85.0448 75.8249 85.0839 75.9251 85.0839 76.0558C85.0839 76.1864 85.0448 76.2909 84.9664 76.3693C84.888 76.439 84.7748 76.4738 84.6267 76.4738H83.2158V81.5427C83.2158 81.9085 83.0372 82.0914 82.6801 82.0914Z" fill="#3E5BA7"/>
<path d="M88.6287 82.1175C88.0104 82.1175 87.4747 81.9826 87.0218 81.7126C86.569 81.4426 86.2162 81.0637 85.9636 80.576C85.7198 80.0795 85.5978 79.496 85.5978 78.8254C85.5978 78.3202 85.6675 77.8673 85.8069 77.4667C85.9462 77.0573 86.1509 76.709 86.4209 76.4215C86.6909 76.1341 87.0088 75.9164 87.3746 75.7683C87.7491 75.6116 88.1671 75.5332 88.6287 75.5332C89.2471 75.5332 89.7827 75.6682 90.2356 75.9382C90.6885 76.2082 91.0369 76.5914 91.2808 77.0878C91.5334 77.5756 91.6596 78.1547 91.6596 78.8254C91.6596 79.3305 91.59 79.7834 91.4506 80.184C91.3113 80.5847 91.1066 80.9331 90.8366 81.2292C90.5666 81.5166 90.2444 81.7387 89.8698 81.8955C89.504 82.0435 89.0903 82.1175 88.6287 82.1175ZM88.6287 81.2684C89.0207 81.2684 89.3647 81.1726 89.6608 80.981C89.9569 80.7894 90.1834 80.5106 90.3402 80.1449C90.5056 79.7791 90.5884 79.3392 90.5884 78.8254C90.5884 78.0328 90.4098 77.4275 90.0527 77.0094C89.7044 76.5914 89.2297 76.3824 88.6287 76.3824C88.2281 76.3824 87.8797 76.4782 87.5836 76.6698C87.2962 76.8527 87.0697 77.127 86.9043 77.4928C86.7475 77.8499 86.6691 78.2941 86.6691 78.8254C86.6691 79.6092 86.8477 80.2145 87.2047 80.6413C87.5618 81.0593 88.0365 81.2684 88.6287 81.2684Z" fill="#3E5BA7"/>
<path d="M95.1826 82.1175C94.5555 82.1175 94.0765 81.9259 93.7455 81.5427C93.4146 81.1595 93.2491 80.6108 93.2491 79.8966V73.2339C93.2491 73.0597 93.2926 72.929 93.3797 72.842C93.4668 72.7461 93.5975 72.6982 93.7717 72.6982C93.9371 72.6982 94.0678 72.7461 94.1636 72.842C94.2594 72.929 94.3073 73.0597 94.3073 73.2339V79.8182C94.3073 80.2886 94.3987 80.6413 94.5816 80.8764C94.7732 81.1029 95.0519 81.2161 95.4177 81.2161C95.4961 81.2161 95.5658 81.2118 95.6268 81.2031C95.6877 81.1943 95.7487 81.19 95.8097 81.19C95.9055 81.1813 95.9708 81.2031 96.0056 81.2553C96.0492 81.3076 96.071 81.4121 96.071 81.5689C96.071 81.7256 96.0361 81.8432 95.9664 81.9216C95.8968 82 95.7835 82.0522 95.6268 82.0784C95.5571 82.0871 95.4831 82.0958 95.4047 82.1045C95.3263 82.1132 95.2523 82.1175 95.1826 82.1175Z" fill="#3E5BA7"/>
<path d="M99.8598 84.4691C99.3982 84.4691 98.9453 84.4125 98.5011 84.2993C98.0656 84.1948 97.6694 84.0249 97.3123 83.7898C97.2077 83.7288 97.1381 83.6548 97.1032 83.5677C97.0771 83.4806 97.0728 83.3935 97.0902 83.3064C97.1076 83.228 97.1468 83.154 97.2077 83.0843C97.2687 83.0233 97.3384 82.9841 97.4168 82.9667C97.5039 82.9493 97.591 82.9624 97.6781 83.0059C98.0613 83.2411 98.4271 83.4022 98.7755 83.4893C99.1238 83.5764 99.4679 83.6199 99.8075 83.6199C100.426 83.6199 100.892 83.4545 101.205 83.1235C101.528 82.7925 101.689 82.3135 101.689 81.6864V80.2102H101.819C101.689 80.7153 101.41 81.116 100.983 81.4121C100.565 81.7082 100.073 81.8563 99.507 81.8563C98.9235 81.8563 98.4184 81.7256 97.9916 81.4643C97.5648 81.1943 97.2339 80.8198 96.9987 80.3408C96.7723 79.8618 96.659 79.3087 96.659 78.6817C96.659 78.2113 96.7244 77.7846 96.855 77.4014C96.9857 77.0094 97.1729 76.6785 97.4168 76.4085C97.6694 76.1298 97.9698 75.9164 98.3182 75.7683C98.6753 75.6116 99.0716 75.5332 99.507 75.5332C100.082 75.5332 100.578 75.6812 100.996 75.9774C101.414 76.2648 101.684 76.6567 101.806 77.1531L101.676 77.3099V76.0949C101.676 75.9208 101.719 75.7901 101.806 75.703C101.902 75.6072 102.033 75.5593 102.198 75.5593C102.372 75.5593 102.503 75.6072 102.59 75.703C102.677 75.7901 102.721 75.9208 102.721 76.0949V81.5427C102.721 82.5095 102.477 83.2367 101.989 83.7244C101.51 84.2209 100.8 84.4691 99.8598 84.4691ZM99.703 80.994C100.112 80.994 100.465 80.9026 100.761 80.7197C101.057 80.5281 101.284 80.2581 101.441 79.9097C101.606 79.5613 101.689 79.152 101.689 78.6817C101.689 77.9762 101.51 77.4188 101.153 77.0094C100.796 76.5914 100.313 76.3824 99.703 76.3824C99.3024 76.3824 98.954 76.4782 98.6579 76.6698C98.3618 76.8527 98.131 77.1183 97.9655 77.4667C97.8087 77.8064 97.7303 78.2113 97.7303 78.6817C97.7303 79.3871 97.9089 79.9489 98.266 80.3669C98.623 80.785 99.1021 80.994 99.703 80.994Z" fill="#3E5BA7"/>
</svg>
